<?xml version="1.0" standalone="no"?><!DOCTYPE svg PUBLIC "-//W3C//DTD SVG 1.1//EN" "http://www.w3.org/Graphics/SVG/1.1/DTD/svg11.dtd"><svg t="1599116368703" class="icon" viewBox="0 0 1024 1024" version="1.1" xmlns="http://www.w3.org/2000/svg" p-id="3674" xmlns:xlink="http://www.w3.org/1999/xlink" width="64" height="64"><defs><style type="text/css"></style></defs><path d="M488.384 554.496H332.288C149.056 554.496 0 699.584 0 877.888 0 923.136 37.824 960 84.352 960h651.968c46.464 0 84.288-36.864 84.288-82.112 0-178.304-148.992-323.392-332.224-323.392z m248 342.976H84.48a20.16 20.16 0 0 1-20.096-19.648c0-143.744 120.192-260.736 267.968-260.736h156.224c147.776 0 267.968 116.992 267.968 260.736a20.352 20.352 0 0 1-20.16 19.648z m-58.368-829.952c88.448 20.096 150.208 96.064 150.208 184.64 0 88.256-64 166.144-152.256 185.28a31.168 31.168 0 0 0-24.448 37.248 32 32 0 0 0 38.208 23.808c117.504-25.408 202.688-129.024 202.688-246.336 0-117.696-82.176-218.752-199.872-245.568a32.192 32.192 0 0 0-38.592 23.296 31.296 31.296 0 0 0 24.064 37.632z m112.384 501.504a32.512 32.512 0 0 0-40.384 20.48c-5.12 16.448 4.032 33.92 20.48 39.104l0.64 0.128c110.976 33.728 188.48 136.256 188.48 249.024a20.288 20.288 0 0 1-20.032 19.584h-57.088a31.872 31.872 0 0 0-32.256 31.36c0 17.28 14.464 31.296 32.256 31.296h57.152c46.464 0 84.352-36.864 84.352-82.24 0-139.904-96.064-266.88-233.6-308.736z m-381.952-64.64c142.912 0 259.2-113.024 259.2-252.096C667.712 113.216 551.36 0 408.448 0 265.6 0 149.312 113.088 149.312 252.096c0 139.136 116.288 252.288 259.136 252.288z m0-441.792c107.52 0 194.816 85.056 194.816 189.568 0 104.576-87.424 189.632-194.816 189.632S213.696 356.736 213.696 252.16c0-104.512 87.424-189.568 194.752-189.568z" p-id="3675"></path></svg>